<svg width="303" height="52" viewBox="0 0 303 52" fill="none" xmlns="http://www.w3.org/2000/svg">
<rect x="1" y="1" width="50" height="50" rx="5" stroke="#FF0000" stroke-width="2"/>
<line x1="10.36" y1="38" x2="41.64" y2="38" stroke="#FF0000" stroke-width="2" stroke-linecap="round"/>
<line x1="10.36" y1="43.2" x2="41.64" y2="43.2" stroke="#FF0000" stroke-width="2" stroke-linecap="round"/>
<path d="M72.944 51.08V20.168H62V17H87.152V20.168H76.208V51.08H72.944Z" fill="black"/>
<path d="M90.2026 51.08V17H93.3706V31.688L92.9866 31.64C93.2426 30.136 93.7546 28.904 94.5226 27.944C95.3226 26.984 96.3146 26.264 97.4986 25.784C98.6826 25.304 99.9786 25.064 101.387 25.064C103.243 25.064 104.795 25.48 106.043 26.312C107.291 27.144 108.235 28.296 108.875 29.768C109.515 31.208 109.835 32.856 109.835 34.712V51.08H106.667V35.864C106.667 33.304 106.187 31.336 105.227 29.96C104.267 28.584 102.747 27.896 100.667 27.896C98.4266 27.896 96.6506 28.616 95.3386 30.056C94.0266 31.464 93.3706 33.416 93.3706 35.912V51.08H90.2026Z" fill="black"/>
<path d="M117.25 51.08V25.64H120.417V51.08H117.25ZM117.153 21.416V17.144H120.514V21.416H117.153Z" fill="black"/>
<path d="M128.687 51.08V25.64H131.567L131.711 32.312L131.327 32.024C131.583 30.456 132.111 29.16 132.911 28.136C133.743 27.112 134.751 26.344 135.935 25.832C137.119 25.32 138.399 25.064 139.775 25.064C141.727 25.064 143.327 25.496 144.575 26.36C145.855 27.224 146.799 28.392 147.407 29.864C148.015 31.304 148.319 32.92 148.319 34.712V51.08H145.151V35.864C145.151 34.2 144.943 32.776 144.527 31.592C144.143 30.408 143.503 29.496 142.607 28.856C141.711 28.216 140.543 27.896 139.103 27.896C136.927 27.896 135.167 28.6 133.823 30.008C132.511 31.416 131.855 33.368 131.855 35.864V51.08H128.687Z" fill="black"/>
<path d="M155.734 51.08V17H158.902V40.136L172.678 25.64H176.902L166.438 36.488L177.526 51.08H173.686L164.326 38.6L158.902 44.168V51.08H155.734Z" fill="black"/>
<path d="M181.996 51.08V17H185.26V33.464L183.724 32.264H204.94L203.404 33.464V17H206.668V51.08H203.404V34.184L204.94 35.432H183.724L185.26 34.184V51.08H181.996Z" fill="black"/>
<path d="M224.304 51.656C222 51.656 219.984 51.112 218.256 50.024C216.56 48.936 215.248 47.4 214.32 45.416C213.392 43.4 212.928 41.048 212.928 38.36C212.928 35.64 213.392 33.288 214.32 31.304C215.248 29.32 216.56 27.784 218.256 26.696C219.984 25.608 222 25.064 224.304 25.064C226.608 25.064 228.608 25.608 230.304 26.696C232 27.784 233.312 29.32 234.24 31.304C235.168 33.288 235.632 35.64 235.632 38.36C235.632 41.048 235.168 43.4 234.24 45.416C233.312 47.4 232 48.936 230.304 50.024C228.608 51.112 226.608 51.656 224.304 51.656ZM224.304 48.632C226.8 48.632 228.752 47.72 230.16 45.896C231.6 44.04 232.32 41.528 232.32 38.36C232.32 35.192 231.6 32.696 230.16 30.872C228.752 29.016 226.8 28.088 224.304 28.088C221.808 28.088 219.84 29.016 218.4 30.872C216.96 32.696 216.24 35.192 216.24 38.36C216.24 41.528 216.96 44.04 218.4 45.896C219.84 47.72 221.808 48.632 224.304 48.632Z" fill="black"/>
<path d="M241.328 51.08V25.64H244.208L244.352 32.504L243.92 32.12C244.112 30.712 244.576 29.48 245.312 28.424C246.048 27.368 246.976 26.552 248.096 25.976C249.216 25.368 250.464 25.064 251.84 25.064C253.92 25.064 255.648 25.736 257.024 27.08C258.4 28.392 259.232 30.216 259.52 32.552L258.848 32.456C259.072 30.92 259.536 29.608 260.24 28.52C260.976 27.4 261.92 26.552 263.072 25.976C264.224 25.368 265.52 25.064 266.96 25.064C268.656 25.064 270.112 25.464 271.328 26.264C272.544 27.032 273.472 28.136 274.112 29.576C274.752 31.016 275.072 32.744 275.072 34.76V51.08H271.904V35.72C271.904 33.192 271.408 31.256 270.416 29.912C269.456 28.568 268.064 27.896 266.24 27.896C264.96 27.896 263.824 28.232 262.832 28.904C261.872 29.576 261.104 30.52 260.528 31.736C259.984 32.952 259.712 34.376 259.712 36.008V51.08H256.544V35.864C256.544 33.4 256.096 31.464 255.2 30.056C254.336 28.616 252.96 27.896 251.072 27.896C249.792 27.896 248.656 28.232 247.664 28.904C246.672 29.576 245.888 30.504 245.312 31.688C244.768 32.872 244.496 34.264 244.496 35.864V51.08H241.328Z" fill="black"/>
<path d="M292.134 51.656C289.702 51.656 287.638 51.096 285.942 49.976C284.246 48.824 282.934 47.256 282.006 45.272C281.11 43.256 280.662 40.952 280.662 38.36C280.662 35.768 281.11 33.48 282.006 31.496C282.902 29.48 284.182 27.912 285.846 26.792C287.542 25.64 289.574 25.064 291.942 25.064C294.214 25.064 296.182 25.608 297.846 26.696C299.51 27.784 300.774 29.32 301.638 31.304C302.534 33.288 302.982 35.608 302.982 38.264V39.272H283.974C284.102 42.28 284.886 44.6 286.326 46.232C287.766 47.832 289.702 48.632 292.134 48.632C293.99 48.632 295.51 48.184 296.694 47.288C297.878 46.392 298.694 45.208 299.142 43.736L302.55 43.976C301.91 46.216 300.678 48.056 298.854 49.496C297.03 50.936 294.79 51.656 292.134 51.656ZM283.974 36.44H299.526C299.366 33.72 298.614 31.656 297.27 30.248C295.926 28.808 294.15 28.088 291.942 28.088C289.734 28.088 287.926 28.808 286.518 30.248C285.11 31.688 284.262 33.752 283.974 36.44Z" fill="black"/>
</svg>
