<svg width="310" height="60" viewBox="0 0 310 60" fill="none" xmlns="http://www.w3.org/2000/svg">
<rect width="310" height="60" fill="#F5F5F5"/>
<g filter="url(#filter0_d_0_1)">
<rect x="5" y="1" width="50" height="50" rx="5" stroke="#FF0000" stroke-width="2" shape-rendering="crispEdges"/>
</g>
<line x1="14.36" y1="38" x2="45.64" y2="38" stroke="#FF0000" stroke-width="2" stroke-linecap="round"/>
<line x1="14.36" y1="43.2" x2="45.64" y2="43.2" stroke="#FF0000" stroke-width="2" stroke-linecap="round"/>
<path d="M79.944 51.08V20.168H69V17H94.152V20.168H83.208V51.08H79.944Z" fill="black"/>
<path d="M97.2026 51.08V17H100.371V31.688L99.9866 31.64C100.243 30.136 100.755 28.904 101.523 27.944C102.323 26.984 103.315 26.264 104.499 25.784C105.683 25.304 106.979 25.064 108.387 25.064C110.243 25.064 111.795 25.48 113.043 26.312C114.291 27.144 115.235 28.296 115.875 29.768C116.515 31.208 116.835 32.856 116.835 34.712V51.08H113.667V35.864C113.667 33.304 113.187 31.336 112.227 29.96C111.267 28.584 109.747 27.896 107.667 27.896C105.427 27.896 103.651 28.616 102.339 30.056C101.027 31.464 100.371 33.416 100.371 35.912V51.08H97.2026Z" fill="black"/>
<path d="M124.25 51.08V25.64H127.417V51.08H124.25ZM124.153 21.416V17.144H127.514V21.416H124.153Z" fill="black"/>
<path d="M135.687 51.08V25.64H138.567L138.711 32.312L138.327 32.024C138.583 30.456 139.111 29.16 139.911 28.136C140.743 27.112 141.751 26.344 142.935 25.832C144.119 25.32 145.399 25.064 146.775 25.064C148.727 25.064 150.327 25.496 151.575 26.36C152.855 27.224 153.799 28.392 154.407 29.864C155.015 31.304 155.319 32.92 155.319 34.712V51.08H152.151V35.864C152.151 34.2 151.943 32.776 151.527 31.592C151.143 30.408 150.503 29.496 149.607 28.856C148.711 28.216 147.543 27.896 146.103 27.896C143.927 27.896 142.167 28.6 140.823 30.008C139.511 31.416 138.855 33.368 138.855 35.864V51.08H135.687Z" fill="black"/>
<path d="M162.734 51.08V17H165.902V40.136L179.678 25.64H183.902L173.438 36.488L184.526 51.08H180.686L171.326 38.6L165.902 44.168V51.08H162.734Z" fill="black"/>
<path d="M188.996 51.08V17H192.26V33.464L190.724 32.264H211.94L210.404 33.464V17H213.668V51.08H210.404V34.184L211.94 35.432H190.724L192.26 34.184V51.08H188.996Z" fill="black"/>
<path d="M231.304 51.656C229 51.656 226.984 51.112 225.256 50.024C223.56 48.936 222.248 47.4 221.32 45.416C220.392 43.4 219.928 41.048 219.928 38.36C219.928 35.64 220.392 33.288 221.32 31.304C222.248 29.32 223.56 27.784 225.256 26.696C226.984 25.608 229 25.064 231.304 25.064C233.608 25.064 235.608 25.608 237.304 26.696C239 27.784 240.312 29.32 241.24 31.304C242.168 33.288 242.632 35.64 242.632 38.36C242.632 41.048 242.168 43.4 241.24 45.416C240.312 47.4 239 48.936 237.304 50.024C235.608 51.112 233.608 51.656 231.304 51.656ZM231.304 48.632C233.8 48.632 235.752 47.72 237.16 45.896C238.6 44.04 239.32 41.528 239.32 38.36C239.32 35.192 238.6 32.696 237.16 30.872C235.752 29.016 233.8 28.088 231.304 28.088C228.808 28.088 226.84 29.016 225.4 30.872C223.96 32.696 223.24 35.192 223.24 38.36C223.24 41.528 223.96 44.04 225.4 45.896C226.84 47.72 228.808 48.632 231.304 48.632Z" fill="black"/>
<path d="M248.328 51.08V25.64H251.208L251.352 32.504L250.92 32.12C251.112 30.712 251.576 29.48 252.312 28.424C253.048 27.368 253.976 26.552 255.096 25.976C256.216 25.368 257.464 25.064 258.84 25.064C260.92 25.064 262.648 25.736 264.024 27.08C265.4 28.392 266.232 30.216 266.52 32.552L265.848 32.456C266.072 30.92 266.536 29.608 267.24 28.52C267.976 27.4 268.92 26.552 270.072 25.976C271.224 25.368 272.52 25.064 273.96 25.064C275.656 25.064 277.112 25.464 278.328 26.264C279.544 27.032 280.472 28.136 281.112 29.576C281.752 31.016 282.072 32.744 282.072 34.76V51.08H278.904V35.72C278.904 33.192 278.408 31.256 277.416 29.912C276.456 28.568 275.064 27.896 273.24 27.896C271.96 27.896 270.824 28.232 269.832 28.904C268.872 29.576 268.104 30.52 267.528 31.736C266.984 32.952 266.712 34.376 266.712 36.008V51.08H263.544V35.864C263.544 33.4 263.096 31.464 262.2 30.056C261.336 28.616 259.96 27.896 258.072 27.896C256.792 27.896 255.656 28.232 254.664 28.904C253.672 29.576 252.888 30.504 252.312 31.688C251.768 32.872 251.496 34.264 251.496 35.864V51.08H248.328Z" fill="black"/>
<path d="M299.134 51.656C296.702 51.656 294.638 51.096 292.942 49.976C291.246 48.824 289.934 47.256 289.006 45.272C288.11 43.256 287.662 40.952 287.662 38.36C287.662 35.768 288.11 33.48 289.006 31.496C289.902 29.48 291.182 27.912 292.846 26.792C294.542 25.64 296.574 25.064 298.942 25.064C301.214 25.064 303.182 25.608 304.846 26.696C306.51 27.784 307.774 29.32 308.638 31.304C309.534 33.288 309.982 35.608 309.982 38.264V39.272H290.974C291.102 42.28 291.886 44.6 293.326 46.232C294.766 47.832 296.702 48.632 299.134 48.632C300.99 48.632 302.51 48.184 303.694 47.288C304.878 46.392 305.694 45.208 306.142 43.736L309.55 43.976C308.91 46.216 307.678 48.056 305.854 49.496C304.03 50.936 301.79 51.656 299.134 51.656ZM290.974 36.44H306.526C306.366 33.72 305.614 31.656 304.27 30.248C302.926 28.808 301.15 28.088 298.942 28.088C296.734 28.088 294.926 28.808 293.518 30.248C292.11 31.688 291.262 33.752 290.974 36.44Z" fill="black"/>
<defs>
<filter id="filter0_d_0_1" x="0" y="0" width="60" height="60" filterUnits="userSpaceOnUse" color-interpolation-filters="sRGB">
<feFlood flood-opacity="0" result="BackgroundImageFix"/>
<feColorMatrix in="SourceAlpha" type="matrix" values="0 0 0 0 0 0 0 0 0 0 0 0 0 0 0 0 0 0 127 0" result="hardAlpha"/>
<feOffset dy="4"/>
<feGaussianBlur stdDeviation="2"/>
<feComposite in2="hardAlpha" operator="out"/>
<feColorMatrix type="matrix" values="0 0 0 0 0 0 0 0 0 0 0 0 0 0 0 0 0 0 0.25 0"/>
<feBlend mode="normal" in2="BackgroundImageFix" result="effect1_dropShadow_0_1"/>
<feBlend mode="normal" in="SourceGraphic" in2="effect1_dropShadow_0_1" result="shape"/>
</filter>
</defs>
</svg>
